<?xml version="1.0"?>
<svg version="1.1" xmlns="http://www.w3.org/2000/svg" width="200" height="40" style=""><path fill="#693369" d="M15.833984375,16.103515625q0-0.1640625,0.1572265625-0.24609375t0.341796875-0.123046875t0.3349609375-0.041015625l0.150390625,0q0.478515625,0,0.6904296875,0.21875t0.5126953125,0.560546875q2.05078125,2.966796875,3.759765625,6.1044921875t3.294921875,6.3505859375q0.13671875-3.74609375,0.2802734375-7.5400390625t0.3623046875-7.5263671875q0-0.1640625,0.1572265625-0.2734375t0.35546875-0.1640625t0.4033203125-0.068359375t0.314453125-0.013671875q0.1640625,0,0.3623046875,0.013671875t0.396484375,0.08203125t0.328125,0.1640625t0.1298828125,0.259765625q0.0546875,0.587890625,0.0615234375,1.1826171875t0.0068359375,1.1826171875q0,4.40234375-0.19140625,8.626953125t-0.19140625,8.53125l0,0.984375q0,0.0546875-0.0546875,0.1640625q0.02734375,0.109375,0.08203125,0.2392578125t0.0546875,0.1845703125q0,0.21875-0.2255859375,0.328125t-0.4921875,0.1708984375t-0.4716796875,0.0615234375t-0.150390625,0q-0.697265625,0-1.17578125-0.3828125t-0.478515625-0.916015625q-1.01171875-2.26953125-2.0166015625-4.5048828125t-2.0986328125-4.4501953125q-0.697265625-1.39453125-1.4013671875-2.7958984375t-1.5107421875-2.7138671875q0.02734375,0.02734375,0.02734375,0.08203125q0.13671875,1.3671875,0.2939453125,2.7275390625t0.2392578125,2.7275390625q0.0546875,1.17578125,0.123046875,2.37890625t0.21875,2.37890625q0,0.451171875-0.2802734375,0.57421875t-0.6494140625,0.123046875q-0.314453125,0-0.5947265625-0.08203125t-0.3349609375-0.41015625q0-1.2578125-0.095703125-2.6728515625t-0.177734375-2.8505859375q-0.13671875-1.900390625-0.3623046875-3.8623046875t-0.2255859375-3.8349609375q0-0.08203125,0.013671875-0.1708984375t0.013671875-0.1982421875q-0.08203125-0.13671875-0.1845703125-0.287109375t-0.1025390625-0.2734375z M28.71521484375,43.5224609375q0.0478515625-0.1982421875,0.1982421875-0.3076171875t0.4921875-0.109375q0.369140625,0,0.697265625,0.21875t0.478515625,0.533203125q0.478515625-0.751953125,0.751953125-1.75t0.4169921875-2.078125t0.1708984375-2.1259765625t0.02734375-1.9208984375q0-2.748046875,0.068359375-5.400390625t0.21875-5.400390625q0-0.19140625,0.1640625-0.3212890625t0.3759765625-0.1982421875t0.4375-0.095703125t0.3896484375-0.02734375q0.314453125,0,0.615234375,0.08203125t0.560546875,0.24609375l0.1640625,0.314453125q-0.02734375,1.955078125-0.109375,3.9033203125t-0.08203125,3.8759765625q0,0.751953125,0.02734375,1.96875q0.013671875,0.396484375,0.013671875,0.8203125q0,0.84765625-0.041015625,1.77734375q-0.0546875,1.39453125-0.2392578125,2.8095703125t-0.6015625,2.5634765625t-1.134765625,1.8798828125t-1.8115234375,0.7314453125q-0.478515625,0-0.8955078125-0.1162109375t-0.7451171875-0.4443359375q-0.314453125-0.2734375-0.451171875-0.587890625q-0.08203125-0.19140625-0.1435546875-0.4169921875t-0.013671875-0.423828125z M32.59119140625,21.654296875l0-0.8408203125t0.095703125-0.73828125t0.3623046875-0.51953125t0.7724609375-0.1982421875q0.19140625,0,0.3896484375,0.02734375t0.3759765625,0.109375l0.30078125,0.341796875q0,0.396484375,0.013671875,0.875l0,0.109375q0,0.41015625-0.08203125,0.765625q-0.095703125,0.423828125-0.3486328125,0.7177734375t-0.7861328125,0.2939453125q-0.423828125,0-0.642578125-0.123046875t-0.423828125-0.51953125z M37.0437109375,33.193359375q0-0.08203125,0.1982421875-0.4375t0.505859375-0.8544921875t0.669921875-1.0869140625t0.724609375-1.162109375t0.6767578125-1.0390625t0.478515625-0.7109375q-0.1640625-0.314453125-0.560546875-0.861328125t-0.8134765625-1.107421875t-0.724609375-1.080078125t-0.3076171875-0.765625q0-0.396484375,0.3896484375-0.51953125t0.7587890625-0.123046875q0.396484375,0,0.560546875,0.068359375t0.4375,0.3828125q-0.02734375,0.08203125,0.1982421875,0.4306640625t0.533203125,0.73828125t0.587890625,0.7109375t0.3349609375,0.4169921875l0.6015625-0.6015625t0.7451171875-0.6904296875t0.8134765625-0.560546875t0.779296875-0.2255859375q0.13671875,0,0.4169921875,0.068359375t0.2802734375,0.2734375q-0.396484375,0.423828125-0.724609375,0.697265625t-0.669921875,0.5537109375t-0.68359375,0.62890625t-0.79296875,0.8818359375q0.19140625,0.314453125,0.724609375,1.0390625t1.080078125,1.5380859375t0.9638671875,1.53125t0.4169921875,0.9912109375q0,0.1640625-0.1708984375,0.2666015625t-0.3896484375,0.1708984375t-0.4443359375,0.095703125t-0.3349609375,0.02734375q-0.314453125,0-0.7177734375-0.08203125t-0.5810546875-0.369140625q-0.533203125-0.779296875-0.9228515625-1.6337890625t-0.9501953125-1.6337890625q-0.109375,0.19140625-0.4443359375,0.90234375t-0.7998046875,1.4970703125t-0.9775390625,1.4013671875t-0.9365234375,0.615234375l-0.02734375,0q-0.19140625,0-0.546875-0.068359375t-0.35546875-0.314453125z"/><path fill="#" d="M52.74427734375,14.982421875q0-0.95703125,0.328125-1.28515625t0.916015625-0.328125q0.1640625,0,0.3486328125,0.02734375t0.3486328125,0.08203125q0.916015625-0.177734375,1.736328125-0.177734375q1.326171875,0,2.40625,0.46484375q1.736328125,0.73828125,2.87109375,2.1875t1.66796875,3.404296875t0.533203125,4.005859375q0,1.1484375-0.1572265625,2.392578125t-0.6083984375,2.310546875q-0.396484375,0.95703125-1.09375,2.0029296875t-1.5791015625,1.982421875t-1.900390625,1.640625t-2.0576171875,0.9501953125l0,0.109375q0,0.2734375-0.1435546875,0.4443359375t-0.3486328125,0.259765625t-0.4716796875,0.1162109375t-0.4990234375,0.02734375q-0.13671875,0-0.3896484375-0.02734375t-0.4921875-0.1025390625t-0.4033203125-0.1982421875t-0.1640625-0.341796875q0-2.48828125-0.1298828125-4.9833984375t-0.2939453125-4.990234375t-0.2939453125-4.9833984375t-0.1298828125-4.990234375z M55.32826171875,14.28515625q0.13671875,1.3125,0.177734375,2.6181640625t0.123046875,2.6181640625q0.21875,3.390625,0.505859375,6.7470703125t0.341796875,6.7470703125q1.3125-0.861328125,2.2490234375-1.96875t1.5380859375-2.40625t0.8818359375-2.7275390625t0.2802734375-2.9462890625q0-1.09375-0.19140625-2.40625t-0.65625-2.529296875t-1.2509765625-2.201171875t-1.9619140625-1.408203125q-0.24609375-0.08203125-0.5947265625-0.13671875t-1.1142578125-0.0546875q-0.08203125,0-0.1640625,0.02734375t-0.1640625,0.02734375z M66.712421875,22.3515625q0-0.90234375,0.0751953125-1.9755859375t0.2666015625-2.1533203125t0.57421875-2.0849609375t0.984375-1.791015625t1.4697265625-1.2509765625t2.0712890625-0.46484375q0.95703125,0,1.763671875,0.369140625t1.408203125,0.998046875t0.9365234375,1.4697265625t0.3349609375,1.7568359375q0,0.24609375-0.3349609375,0.3076171875t-0.4716796875,0.0615234375q-0.24609375,0-0.4716796875-0.041015625t-0.3349609375-0.328125q-0.19140625-0.533203125-0.4033203125-1.12109375t-0.51953125-1.0732421875t-0.7587890625-0.7998046875q-0.41015625-0.2734375-1.0390625-0.2734375l-0.109375,0q-1.1484375,0.02734375-1.708984375,0.8203125t-0.7724609375,1.927734375t-0.2119140625,2.40625l0,2.255859375q0,0.560546875,0.041015625,1.626953125t0.1982421875,2.32421875t0.41015625,2.5634765625t0.68359375,2.37890625t1.0322265625,1.75t1.44921875,0.6767578125q0.751953125,0,1.3125-0.51953125t0.9638671875-1.3330078125t0.68359375-1.818359375t0.46484375-2.0166015625t0.2802734375-1.8798828125t0.150390625-1.4287109375q-0.150390625-0.013671875-0.287109375-0.013671875q-0.642578125,0-1.2578125,0.205078125q-0.779296875,0.232421875-1.55859375,0.232421875q-0.109375,0-0.2939453125-0.013671875t-0.3486328125-0.068359375t-0.2939453125-0.1572265625t-0.1298828125-0.2666015625q0-0.314453125,0.6904296875-0.533203125t1.572265625-0.3759765625t1.7021484375-0.2255859375t1.080078125-0.068359375q0.13671875,0,0.3896484375,0.02734375t0.505859375,0.095703125t0.4306640625,0.1982421875t0.177734375,0.3212890625q0,0.1640625-0.123046875,0.2939453125t-0.3076171875,0.1982421875t-0.3759765625,0.095703125t-0.30078125,0.02734375q0.013671875,0.314453125,0.013671875,0.642578125q0,0.73828125-0.041015625,1.572265625q-0.068359375,1.203125-0.2734375,2.40625t-0.62890625,2.337890625t-1.080078125,2.0029296875t-1.6201171875,1.4013671875t-2.2900390625,0.533203125q-1.44921875,0-2.447265625-0.615234375t-1.626953125-1.640625t-0.9775390625-2.32421875t-0.4990234375-2.6591796875t-0.1845703125-2.6455078125t-0.0341796875-2.32421875z"/></svg>
